<?xml version="1.0" standalone="no"?>
<!DOCTYPE svg PUBLIC "-//W3C//DTD SVG 20010904//EN"
 "http://www.w3.org/TR/2001/REC-SVG-20010904/DTD/svg10.dtd">
<svg version="1.0" xmlns="http://www.w3.org/2000/svg"
 width="1024.000000pt" height="1024.000000pt" viewBox="0 0 1024.000000 1024.000000"
 preserveAspectRatio="xMidYMid meet">
<metadata>
Created by potrace 1.14, written by Peter Selinger 2001-2017
</metadata>
<g transform="translate(0.000000,1024.000000) scale(0.100000,-0.100000)"
fill="#000000" stroke="none">
<path d="M3030 9459 c-241 -46 -353 -86 -505 -179 -225 -137 -444 -379 -543
-600 -90 -200 -122 -365 -117 -600 2 -85 6 -166 9 -180 3 -14 10 -50 15 -80
13 -81 63 -225 110 -317 161 -320 417 -548 741 -658 l65 -22 3 -1699 2 -1700
-52 -18 c-359 -125 -666 -415 -802 -758 -33 -84 -73 -235 -83 -313 -10 -80
-10 -313 0 -395 26 -221 120 -443 265 -630 46 -59 228 -236 284 -276 294 -214
643 -296 1018 -240 404 61 785 338 989 721 39 73 99 231 107 282 3 21 7 40 9
43 5 8 16 86 24 170 8 77 6 249 -4 308 -35 220 -101 394 -218 572 -141 214
-332 379 -565 486 -34 15 -62 33 -62 40 0 22 91 113 159 158 37 25 105 60 152
79 78 32 287 89 369 101 19 3 73 12 120 20 84 14 193 30 280 41 25 3 61 7 80
10 93 12 193 22 300 30 161 12 197 15 245 21 28 2 61 7 75 9 14 3 50 7 80 10
52 6 94 11 150 20 14 3 43 7 65 10 205 31 592 165 825 286 366 189 599 463
733 860 34 100 70 248 81 337 3 23 8 60 11 82 7 50 14 143 15 198 0 42 2 44
43 60 326 127 578 356 737 672 63 126 99 239 124 395 16 93 14 359 -3 452 -64
357 -279 679 -593 891 -159 107 -368 188 -535 208 -26 3 -51 8 -55 10 -4 3
-72 5 -150 5 -369 -1 -665 -119 -944 -378 -227 -209 -380 -517 -411 -823 -8
-79 -7 -277 2 -334 4 -22 9 -54 11 -70 21 -151 120 -382 231 -543 66 -96 243
-270 338 -332 93 -61 255 -140 338 -166 l58 -17 -6 -57 c-15 -150 -24 -196
-52 -285 -22 -69 -56 -144 -110 -240 -24 -44 -132 -145 -199 -189 -135 -87
-457 -197 -649 -221 -22 -3 -53 -7 -70 -10 -60 -8 -302 -31 -440 -41 -44 -3
-102 -8 -130 -11 -27 -3 -66 -8 -85 -10 -199 -20 -597 -80 -658 -98 -9 -3 -37
-8 -62 -11 -112 -16 -445 -112 -522 -151 -15 -8 -31 -14 -35 -14 -4 0 -8 549
-8 1220 l0 1220 35 11 c39 13 133 51 200 82 96 44 218 134 320 237 264 264
399 595 394 967 -2 101 -7 172 -18 228 -2 11 -7 38 -11 60 -11 65 -55 195 -92
275 -137 298 -455 595 -753 705 -57 21 -213 62 -265 70 -66 10 -357 13 -405 4z
m274 -1090 c25 -7 59 -31 97 -68 69 -69 95 -139 84 -226 -16 -133 -109 -221
-246 -232 -184 -16 -319 136 -286 322 18 100 85 175 187 208 28 10 125 7 164
-4z m3828 -1095 c43 -22 114 -95 137 -141 46 -92 20 -233 -56 -305 -35 -33
-111 -68 -161 -73 -44 -5 -152 14 -152 26 0 5 -5 9 -12 9 -24 0 -75 50 -102
101 -56 101 -41 236 35 324 64 73 223 104 311 59z m-3847 -4879 c112 -20 195
-120 201 -243 9 -195 -140 -320 -336 -281 -100 20 -158 66 -185 148 -59 179
35 354 204 380 49 8 53 8 116 -4z"/>
</g>
</svg>
